<!--?xml version="1.0" encoding="UTF-8"?-->
<svg width="1419px" height="1032px" viewBox="0 0 1419 1032" version="1.1" xmlns="http://www.w3.org/2000/svg" xmlns:xlink="http://www.w3.org/1999/xlink" style="">
    <!-- Generator: Sketch 51.2 (57519) - http://www.bohemiancoding.com/sketch -->
    <title>Group 6</title>
    <desc>Created with Sketch.</desc>
    <defs></defs>
    <g id="Page-1" stroke="none" stroke-width="1" fill="none" fill-rule="evenodd">
        <g id="Group-6" transform="translate(4.000000, 4.000000)">
            <g id="Group-2" stroke="#AD9566">
                <path id="Rectangle" stroke-width="10" width="590" height="393.149606" d="M410 315.425197 L1000 315.425197 L1000 708.574803 L410 708.574803 Z" class="OcBhsRUE_0"></path>
                <path id="Combined-Shape" stroke-width="10" fill-rule="nonzero" d="M1055,663.181102L955,663.181102L955,763.968504L455,763.968504L455,663.181102L355,663.181102L355,360.818898L455,360.818898L455,260.031496L955,260.031496L955,360.818898L1055,360.818898Z" class="OcBhsRUE_1"></path>
                <path d="M1311,320.503937 C1303.47787,312.871144 1198.04286,206.180766 995,0" id="Shape" stroke-width="10" transform="translate(1153.000000, 160.251969) scale(-1, 1) translate(-1153.000000, -160.251969) " class="OcBhsRUE_2"></path>
                <path d="M1411,365.858268 C1250.52917,203.328414 1130.19584,81.3756579 1050,0" id="Shape" stroke-width="10" transform="translate(1230.500000, 182.929134) scale(-1, 1) translate(-1230.500000, -182.929134) " class="OcBhsRUE_3"></path>
                <path d="M1211.17535,266.025553 L950,1.00787402" id="Shape" stroke-width="10" transform="translate(1080.587673, 133.516713) scale(-1, 1) translate(-1080.587673, -133.516713) " class="OcBhsRUE_4"></path>
                <path d="M415,320.503937 C408.054753,313.446938 118.780704,19.0994513 100,0" id="Shape" stroke-width="10" class="OcBhsRUE_5"></path>
                <path d="M360.031612,366.832532 L0,1.00787402" id="Shape" stroke-width="10" class="OcBhsRUE_6"></path>
                <path d="M459.965047,266.035013 C324.790318,128.776203 237.801969,40.4338236 199,1.00787402" id="Shape" stroke-width="10" class="OcBhsRUE_7"></path>
                <path id="Shape" stroke-width="20" d="M707,66.519685L102,66.519685L102,510.992126L102,954.456693L1311,954.456693L1311,66.519685L676.5,66.519685" class="OcBhsRUE_8"></path>
                <path id="Shape" stroke-width="18" d="M707.449959,123.968504L163,123.968504L163,512.944953L163,901.03937L1251,901.03937L1251,123.968504L680.002481,123.968504" class="OcBhsRUE_9"></path>
                <path id="Shape" stroke-width="18.9" d="M677.988834,95.7480315L1281,95.7480315L1281,927.244094L132,927.244094L132,511.967968L132,95.7480315L706.975186,95.7480315" class="OcBhsRUE_10"></path>
                <path id="Shape" stroke-width="15" d="M1403,512L1403,212.661417L1203,212.661417L1203,11.0866142L705,11.0866142" class="OcBhsRUE_11"></path>
                <path id="Shape" stroke-width="15" transform="translate(356.000000, 261.543307) scale(-1, 1) translate(-356.000000, -261.543307) " d="M705,512L705,212.661417L505,212.661417L505,11.0866142L7,11.0866142" class="OcBhsRUE_12"></path>
                <path id="Shape" stroke-width="15" transform="translate(1054.000000, 762.456693) scale(1, -1) translate(-1054.000000, -762.456693) " d="M1403,1012.91339L1403,713.574803L1203,713.574803L1203,512L705,512" class="OcBhsRUE_13"></path>
                <path id="Shape" stroke-width="15" transform="translate(356.000000, 762.456693) scale(-1, -1) translate(-356.000000, -762.456693) " d="M705,1012.91339L705,713.574803L505,713.574803L505,512L7,512" class="OcBhsRUE_14"></path>
                <path d="M1310,1024 C1302.45413,1016.34312 1197.3871,909.010954 995,703.496063" id="Shape" stroke-width="10" transform="translate(1152.500000, 863.748031) scale(-1, -1) translate(-1152.500000, -863.748031) " class="OcBhsRUE_15"></path>
                <path d="M1411,1024 C1250.09288,861.027435 1129.75955,739.07468 1050,658.141732" id="Shape" stroke-width="10" transform="translate(1230.500000, 841.070866) scale(-1, -1) translate(-1230.500000, -841.070866) " class="OcBhsRUE_16"></path>
                <path d="M1211,1024 C1095.01541,906.155007 1008.01541,817.798052 950,758.929134" id="Shape" stroke-width="10" transform="translate(1080.500000, 891.464567) scale(-1, -1) translate(-1080.500000, -891.464567) " class="OcBhsRUE_17"></path>
                <path d="M414.144448,1023.98291 C406.605165,1016.32232 301.557016,909.493367 99,703.496063" id="Shape" stroke-width="10" transform="translate(256.572224, 863.739485) scale(1, -1) translate(-256.572224, -863.739485) " class="OcBhsRUE_18"></path>
                <path d="M460,1024 L199,758.929134" id="Shape" stroke-width="10" transform="translate(329.500000, 891.464567) scale(1, -1) translate(-329.500000, -891.464567) " class="OcBhsRUE_19"></path>
                <path d="M360,1024 L0,658.141732" id="Shape" stroke-width="10" transform="translate(180.000000, 841.070866) scale(1, -1) translate(-180.000000, -841.070866) " class="OcBhsRUE_20"></path>
                <path d="M7,335.622047 L191,516.031496" id="Shape" stroke-width="20" class="OcBhsRUE_21"></path>
                <path d="M190.401316,688.939561 L6.53069991,501.92126" id="Shape" stroke-width="20" transform="translate(98.500000, 595.149606) scale(-1, 1) translate(-98.500000, -595.149606) " class="OcBhsRUE_22"></path>
                <path d="M1404,516.031496 L1220,335.622047" id="Shape" stroke-width="20" transform="translate(1312.000000, 425.826772) scale(1, -1) translate(-1312.000000, -425.826772) " class="OcBhsRUE_23"></path>
                <path d="M1220.59868,501.359652 L1404.4693,688.377953" id="Shape" stroke-width="20" transform="translate(1312.533992, 594.868802) scale(-1, -1) translate(-1312.533992, -594.868802) " class="OcBhsRUE_24"></path>
                <path d="M1402,515.023622 L1270,385.007874" id="Shape" stroke-width="15" transform="translate(1336.000000, 450.015748) scale(1, -1) translate(-1336.000000, -450.015748) " class="OcBhsRUE_25"></path>
                <path d="M1270.43041,504.259179 L1402.61847,639.27239" id="Shape" stroke-width="15" transform="translate(1336.524438, 571.765784) scale(-1, -1) translate(-1336.524438, -571.765784) " class="OcBhsRUE_26"></path>
                <path d="M7,385.007874 L139,515.023622" id="Shape" stroke-width="15" class="OcBhsRUE_27"></path>
                <path d="M139.61847,639.677829 L7.43040541,504.664617" id="Shape" stroke-width="15" transform="translate(73.524438, 572.171223) scale(-1, 1) translate(-73.524438, -572.171223) " class="OcBhsRUE_28"></path>
                <path d="M7,435.401575 L86,513.007874" id="Shape" stroke-width="10" class="OcBhsRUE_29"></path>
                <path d="M86.7705081,588.405123 L7.25889047,507.397196" id="Shape" stroke-width="10" transform="translate(47.014699, 547.901159) scale(-1, 1) translate(-47.014699, -547.901159) " class="OcBhsRUE_30"></path>
                <path d="M7,466.645669 L54.5,512.503937" id="Shape" stroke-width="5" class="OcBhsRUE_31"></path>
                <path d="M54.8623049,558.245269 L7.15533428,509.240473" id="Shape" stroke-width="5" transform="translate(31.008820, 533.742871) scale(-1, 1) translate(-31.008820, -533.742871) " class="OcBhsRUE_32"></path>
                <path d="M1325,435.401575 L1404,513.007874" id="Shape" stroke-width="10" transform="translate(1364.500000, 474.204724) scale(-1, 1) translate(-1364.500000, -474.204724) " class="OcBhsRUE_33"></path>
                <path d="M1404.74111,588.405123 L1325.22949,507.397196" id="Shape" stroke-width="10" class="OcBhsRUE_34"></path>
                <path d="M1357,466.645669 L1404.5,512.503937" id="Shape" stroke-width="5" transform="translate(1381.000000, 489.826772) scale(-1, 1) translate(-1381.000000, -489.826772) " class="OcBhsRUE_35"></path>
                <path d="M1404.84467,558.245269 L1357.1377,509.240473" id="Shape" stroke-width="5" class="OcBhsRUE_36"></path>
            </g>
            <g id="Group-2-Copy" transform="translate(14.000000, 16.000000)" stroke="#817B32">
                <path id="Rectangle" stroke-width="9.801" width="583.199" height="390.199" d="M398.9005 300.9005 L982.0995 300.9005 L982.0995 691.0995 L398.9005 691.0995 Z" class="OcBhsRUE_37"></path>
                <path id="Combined-Shape" stroke-width="9.801" fill-rule="nonzero" d="M1037,644.2L938.142857,644.2L938.142857,744L443.857143,744L443.857143,644.2L345,644.2L345,344.8L443.857143,344.8L443.857143,245L938.142857,245L938.142857,344.8L1037,344.8Z" class="OcBhsRUE_38"></path>
                <path id="Shape" stroke-width="19.602" d="M692.99421,54L95,54L95,494.499432L95,934L1290,934L1290,54L662.847395,54" class="OcBhsRUE_39"></path>
                <path id="Shape" stroke-width="17.6418" d="M693.444996,111L155,111L155,496.937571L155,882L1231,882L1231,111L666.300248,111" class="OcBhsRUE_40"></path>
                <path id="Shape" stroke-width="18.52389" d="M663.811414,83L1260,83L1260,907L124,907L124,495.46765L124,83L692.46981,83" class="OcBhsRUE_41"></path>
                <path id="Shape" stroke-width="14.7015" d="M1381,496L1381,199.597586L1183.29226,199.597586L1183.29226,0L691,0" class="OcBhsRUE_42"></path>
                <path id="Shape" stroke-width="14.7015" transform="translate(346.000000, 248.000000) scale(-1, 1) translate(-346.000000, -248.000000) " d="M691,496L691,199.597586L493.292264,199.597586L493.292264,0L1,0" class="OcBhsRUE_43"></path>
                <path id="Shape" stroke-width="14.7015" transform="translate(1036.000000, 744.000000) scale(1, -1) translate(-1036.000000, -744.000000) " d="M1381,992L1381,695.597586L1183.29226,695.597586L1183.29226,496L691,496" class="OcBhsRUE_44"></path>
                <path id="Shape" stroke-width="14.7015" transform="translate(346.000000, 744.000000) scale(-1, -1) translate(-346.000000, -744.000000) " d="M691,992L691,695.597586L493.292264,695.597586L493.292264,496L1,496" class="OcBhsRUE_45"></path>
                <path d="M1,322 L183,500" id="Shape" stroke-width="19.602" class="OcBhsRUE_46"></path>
                <path d="M182.407788,670.559588 L0.524962615,485.994652" id="Shape" stroke-width="19.602" transform="translate(91.500000, 578.000000) scale(-1, 1) translate(-91.500000, -578.000000) " class="OcBhsRUE_47"></path>
                <path d="M1382,500 L1200,322" id="Shape" stroke-width="19.602" transform="translate(1291.000000, 411.000000) scale(1, -1) translate(-1291.000000, -411.000000) " class="OcBhsRUE_48"></path>
                <path d="M1201,486 L1383,670" id="Shape" stroke-width="19.602" transform="translate(1292.000000, 578.000000) scale(-1, -1) translate(-1292.000000, -578.000000) " class="OcBhsRUE_49"></path>
                <path d="M1381,499 L1250,370" id="Shape" stroke-width="14.7015" transform="translate(1315.500000, 434.500000) scale(1, -1) translate(-1315.500000, -434.500000) " class="OcBhsRUE_50"></path>
                <path d="M1250,488 L1381,622" id="Shape" stroke-width="14.7015" transform="translate(1315.500000, 555.000000) scale(-1, -1) translate(-1315.500000, -555.000000) " class="OcBhsRUE_51"></path>
                <path d="M1,370 L132,499" id="Shape" stroke-width="14.7015" class="OcBhsRUE_52"></path>
                <path d="M132,623 L1,489" id="Shape" stroke-width="14.7015" transform="translate(66.500000, 556.000000) scale(-1, 1) translate(-66.500000, -556.000000) " class="OcBhsRUE_53"></path>
                <path d="M1,421 L79,497" id="Shape" stroke-width="9.801" class="OcBhsRUE_54"></path>
                <path d="M80,570 L1,491" id="Shape" stroke-width="9.801" transform="translate(40.500000, 530.500000) scale(-1, 1) translate(-40.500000, -530.500000) " class="OcBhsRUE_55"></path>
                <path d="M1,452 L47.5104167,496.51087" id="Shape" stroke-width="4.9005" class="OcBhsRUE_56"></path>
                <path d="M48,541 L1,493" id="Shape" stroke-width="4.9005" transform="translate(24.500000, 517.000000) scale(-1, 1) translate(-24.500000, -517.000000) " class="OcBhsRUE_57"></path>
                <path d="M1304,421 L1382,497" id="Shape" stroke-width="9.801" transform="translate(1343.000000, 459.000000) scale(-1, 1) translate(-1343.000000, -459.000000) " class="OcBhsRUE_58"></path>
                <path d="M1383,570 L1304,491" id="Shape" stroke-width="9.801" class="OcBhsRUE_59"></path>
                <path d="M1336,452 L1382.51042,496.51087" id="Shape" stroke-width="4.9005" transform="translate(1359.500000, 474.500000) scale(-1, 1) translate(-1359.500000, -474.500000) " class="OcBhsRUE_60"></path>
                <path d="M1383,541 L1336,493" id="Shape" stroke-width="4.9005" class="OcBhsRUE_61"></path>
            </g>
        </g>
    </g>
<style data-made-with="vivus-instant">.OcBhsRUE_0{stroke-dasharray:1967 1969;stroke-dashoffset:1968;animation:OcBhsRUE_draw 2500ms ease-in-out 0ms forwards;}.OcBhsRUE_1{stroke-dasharray:2408 2410;stroke-dashoffset:2409;animation:OcBhsRUE_draw 2500ms ease-in-out 0ms forwards;}.OcBhsRUE_2{stroke-dasharray:451 453;stroke-dashoffset:452;animation:OcBhsRUE_draw 2500ms ease-in-out 0ms forwards;}.OcBhsRUE_3{stroke-dasharray:514 516;stroke-dashoffset:515;animation:OcBhsRUE_draw 2500ms ease-in-out 0ms forwards;}.OcBhsRUE_4{stroke-dasharray:373 375;stroke-dashoffset:374;animation:OcBhsRUE_draw 2500ms ease-in-out 0ms forwards;}.OcBhsRUE_5{stroke-dasharray:450 452;stroke-dashoffset:451;animation:OcBhsRUE_draw 2500ms ease-in-out 0ms forwards;}.OcBhsRUE_6{stroke-dasharray:514 516;stroke-dashoffset:515;animation:OcBhsRUE_draw 2500ms ease-in-out 0ms forwards;}.OcBhsRUE_7{stroke-dasharray:372 374;stroke-dashoffset:373;animation:OcBhsRUE_draw 2500ms ease-in-out 0ms forwards;}.OcBhsRUE_8{stroke-dasharray:4225 4227;stroke-dashoffset:4226;animation:OcBhsRUE_draw 2500ms ease-in-out 0ms forwards;}.OcBhsRUE_9{stroke-dasharray:3758 3760;stroke-dashoffset:3759;animation:OcBhsRUE_draw 2500ms ease-in-out 0ms forwards;}.OcBhsRUE_10{stroke-dasharray:3990 3992;stroke-dashoffset:3991;animation:OcBhsRUE_draw 2500ms ease-in-out 0ms forwards;}.OcBhsRUE_11{stroke-dasharray:1199 1201;stroke-dashoffset:1200;animation:OcBhsRUE_draw 2500ms ease-in-out 0ms forwards;}.OcBhsRUE_12{stroke-dasharray:1199 1201;stroke-dashoffset:1200;animation:OcBhsRUE_draw 2500ms ease-in-out 0ms forwards;}.OcBhsRUE_13{stroke-dasharray:1199 1201;stroke-dashoffset:1200;animation:OcBhsRUE_draw 2500ms ease-in-out 0ms forwards;}.OcBhsRUE_14{stroke-dasharray:1199 1201;stroke-dashoffset:1200;animation:OcBhsRUE_draw 2500ms ease-in-out 0ms forwards;}.OcBhsRUE_15{stroke-dasharray:450 452;stroke-dashoffset:451;animation:OcBhsRUE_draw 2500ms ease-in-out 0ms forwards;}.OcBhsRUE_16{stroke-dasharray:514 516;stroke-dashoffset:515;animation:OcBhsRUE_draw 2500ms ease-in-out 0ms forwards;}.OcBhsRUE_17{stroke-dasharray:372 374;stroke-dashoffset:373;animation:OcBhsRUE_draw 2500ms ease-in-out 0ms forwards;}.OcBhsRUE_18{stroke-dasharray:450 452;stroke-dashoffset:451;animation:OcBhsRUE_draw 2500ms ease-in-out 0ms forwards;}.OcBhsRUE_19{stroke-dasharray:372 374;stroke-dashoffset:373;animation:OcBhsRUE_draw 2500ms ease-in-out 0ms forwards;}.OcBhsRUE_20{stroke-dasharray:514 516;stroke-dashoffset:515;animation:OcBhsRUE_draw 2500ms ease-in-out 0ms forwards;}.OcBhsRUE_21{stroke-dasharray:258 260;stroke-dashoffset:259;animation:OcBhsRUE_draw 2500ms ease-in-out 0ms forwards;}.OcBhsRUE_22{stroke-dasharray:263 265;stroke-dashoffset:264;animation:OcBhsRUE_draw 2500ms ease-in-out 0ms forwards;}.OcBhsRUE_23{stroke-dasharray:258 260;stroke-dashoffset:259;animation:OcBhsRUE_draw 2500ms ease-in-out 0ms forwards;}.OcBhsRUE_24{stroke-dasharray:263 265;stroke-dashoffset:264;animation:OcBhsRUE_draw 2500ms ease-in-out 0ms forwards;}.OcBhsRUE_25{stroke-dasharray:186 188;stroke-dashoffset:187;animation:OcBhsRUE_draw 2500ms ease-in-out 0ms forwards;}.OcBhsRUE_26{stroke-dasharray:189 191;stroke-dashoffset:190;animation:OcBhsRUE_draw 2500ms ease-in-out 0ms forwards;}.OcBhsRUE_27{stroke-dasharray:186 188;stroke-dashoffset:187;animation:OcBhsRUE_draw 2500ms ease-in-out 0ms forwards;}.OcBhsRUE_28{stroke-dasharray:189 191;stroke-dashoffset:190;animation:OcBhsRUE_draw 2500ms ease-in-out 0ms forwards;}.OcBhsRUE_29{stroke-dasharray:111 113;stroke-dashoffset:112;animation:OcBhsRUE_draw 2500ms ease-in-out 0ms forwards;}.OcBhsRUE_30{stroke-dasharray:114 116;stroke-dashoffset:115;animation:OcBhsRUE_draw 2500ms ease-in-out 0ms forwards;}.OcBhsRUE_31{stroke-dasharray:67 69;stroke-dashoffset:68;animation:OcBhsRUE_draw 2500ms ease-in-out 0ms forwards;}.OcBhsRUE_32{stroke-dasharray:69 71;stroke-dashoffset:70;animation:OcBhsRUE_draw 2500ms ease-in-out 0ms forwards;}.OcBhsRUE_33{stroke-dasharray:111 113;stroke-dashoffset:112;animation:OcBhsRUE_draw 2500ms ease-in-out 0ms forwards;}.OcBhsRUE_34{stroke-dasharray:114 116;stroke-dashoffset:115;animation:OcBhsRUE_draw 2500ms ease-in-out 0ms forwards;}.OcBhsRUE_35{stroke-dasharray:67 69;stroke-dashoffset:68;animation:OcBhsRUE_draw 2500ms ease-in-out 0ms forwards;}.OcBhsRUE_36{stroke-dasharray:69 71;stroke-dashoffset:70;animation:OcBhsRUE_draw 2500ms ease-in-out 0ms forwards;}.OcBhsRUE_37{stroke-dasharray:1947 1949;stroke-dashoffset:1948;animation:OcBhsRUE_draw 2500ms ease-in-out 0ms forwards;}.OcBhsRUE_38{stroke-dasharray:2382 2384;stroke-dashoffset:2383;animation:OcBhsRUE_draw 2500ms ease-in-out 0ms forwards;}.OcBhsRUE_39{stroke-dasharray:4181 4183;stroke-dashoffset:4182;animation:OcBhsRUE_draw 2500ms ease-in-out 0ms forwards;}.OcBhsRUE_40{stroke-dasharray:3722 3724;stroke-dashoffset:3723;animation:OcBhsRUE_draw 2500ms ease-in-out 0ms forwards;}.OcBhsRUE_41{stroke-dasharray:3949 3951;stroke-dashoffset:3950;animation:OcBhsRUE_draw 2500ms ease-in-out 0ms forwards;}.OcBhsRUE_42{stroke-dasharray:1186 1188;stroke-dashoffset:1187;animation:OcBhsRUE_draw 2500ms ease-in-out 0ms forwards;}.OcBhsRUE_43{stroke-dasharray:1186 1188;stroke-dashoffset:1187;animation:OcBhsRUE_draw 2500ms ease-in-out 0ms forwards;}.OcBhsRUE_44{stroke-dasharray:1186 1188;stroke-dashoffset:1187;animation:OcBhsRUE_draw 2500ms ease-in-out 0ms forwards;}.OcBhsRUE_45{stroke-dasharray:1186 1188;stroke-dashoffset:1187;animation:OcBhsRUE_draw 2500ms ease-in-out 0ms forwards;}.OcBhsRUE_46{stroke-dasharray:255 257;stroke-dashoffset:256;animation:OcBhsRUE_draw 2500ms ease-in-out 0ms forwards;}.OcBhsRUE_47{stroke-dasharray:260 262;stroke-dashoffset:261;animation:OcBhsRUE_draw 2500ms ease-in-out 0ms forwards;}.OcBhsRUE_48{stroke-dasharray:255 257;stroke-dashoffset:256;animation:OcBhsRUE_draw 2500ms ease-in-out 0ms forwards;}.OcBhsRUE_49{stroke-dasharray:259 261;stroke-dashoffset:260;animation:OcBhsRUE_draw 2500ms ease-in-out 0ms forwards;}.OcBhsRUE_50{stroke-dasharray:184 186;stroke-dashoffset:185;animation:OcBhsRUE_draw 2500ms ease-in-out 0ms forwards;}.OcBhsRUE_51{stroke-dasharray:188 190;stroke-dashoffset:189;animation:OcBhsRUE_draw 2500ms ease-in-out 0ms forwards;}.OcBhsRUE_52{stroke-dasharray:184 186;stroke-dashoffset:185;animation:OcBhsRUE_draw 2500ms ease-in-out 0ms forwards;}.OcBhsRUE_53{stroke-dasharray:188 190;stroke-dashoffset:189;animation:OcBhsRUE_draw 2500ms ease-in-out 0ms forwards;}.OcBhsRUE_54{stroke-dasharray:109 111;stroke-dashoffset:110;animation:OcBhsRUE_draw 2500ms ease-in-out 0ms forwards;}.OcBhsRUE_55{stroke-dasharray:112 114;stroke-dashoffset:113;animation:OcBhsRUE_draw 2500ms ease-in-out 0ms forwards;}.OcBhsRUE_56{stroke-dasharray:65 67;stroke-dashoffset:66;animation:OcBhsRUE_draw 2500ms ease-in-out 0ms forwards;}.OcBhsRUE_57{stroke-dasharray:68 70;stroke-dashoffset:69;animation:OcBhsRUE_draw 2500ms ease-in-out 0ms forwards;}.OcBhsRUE_58{stroke-dasharray:109 111;stroke-dashoffset:110;animation:OcBhsRUE_draw 2500ms ease-in-out 0ms forwards;}.OcBhsRUE_59{stroke-dasharray:112 114;stroke-dashoffset:113;animation:OcBhsRUE_draw 2500ms ease-in-out 0ms forwards;}.OcBhsRUE_60{stroke-dasharray:65 67;stroke-dashoffset:66;animation:OcBhsRUE_draw 2500ms ease-in-out 0ms forwards;}.OcBhsRUE_61{stroke-dasharray:68 70;stroke-dashoffset:69;animation:OcBhsRUE_draw 2500ms ease-in-out 0ms forwards;}@keyframes OcBhsRUE_draw{100%{stroke-dashoffset:0;}}@keyframes OcBhsRUE_fade{0%{stroke-opacity:1;}90.47619047619048%{stroke-opacity:1;}100%{stroke-opacity:0;}}</style></svg>